<svg width="52" height="52" viewBox="0 0 52 52" fill="none" xmlns="http://www.w3.org/2000/svg">
<g opacity="0.7">
<path d="M51 47.6667H1V51.0001H51V47.6667Z" stroke="black" stroke-width="2" stroke-linejoin="round"/>
<path d="M2.66666 47.6667V1H27.6667V47.6667" stroke="black" stroke-width="2" stroke-linejoin="round"/>
<path d="M2.66666 9.33325H27.6667" stroke="black" stroke-width="2" stroke-linejoin="round"/>
<path d="M15.1667 1V9.33334" stroke="black" stroke-width="2" stroke-linejoin="round"/>
<path d="M2.66666 17.6666H27.6667" stroke="black" stroke-width="2" stroke-linejoin="round"/>
<path d="M15.1667 9.33325V17.6666" stroke="black" stroke-width="2" stroke-linejoin="round"/>
<path d="M2.66666 26H27.6667" stroke="black" stroke-width="2" stroke-linejoin="round"/>
<path d="M15.1667 17.6666V26" stroke="black" stroke-width="2" stroke-linejoin="round"/>
<path d="M11 47.6667V43.5C11 42.395 11.439 41.3352 12.2204 40.5538C13.0018 39.7724 14.0616 39.3334 15.1667 39.3334C15.7138 39.3334 16.2557 39.4411 16.7612 39.6505C17.2667 39.8599 17.726 40.1669 18.1129 40.5538C18.4999 40.9407 18.8068 41.4 19.0162 41.9055C19.2256 42.4111 19.3333 42.9529 19.3333 43.5V47.6667" stroke="black" stroke-width="2" stroke-linejoin="round"/>
<path d="M5.16666 6.83334L8.5 3.5" stroke="black" stroke-width="2" stroke-linejoin="round"/>
<path d="M9.33334 6.83334L12.6667 3.5" stroke="black" stroke-width="2" stroke-linejoin="round"/>
<path d="M21.8333 6.83334L25.1667 3.5" stroke="black" stroke-width="2" stroke-linejoin="round"/>
<path d="M21.8333 15.1666L25.1667 11.8333" stroke="black" stroke-width="2" stroke-linejoin="round"/>
<path d="M21.8333 23.5L25.1667 20.1666" stroke="black" stroke-width="2" stroke-linejoin="round"/>
<path d="M17.6667 6.83334L21 3.5" stroke="black" stroke-width="2" stroke-linejoin="round"/>
<path d="M17.6667 15.1666L21 11.8333" stroke="black" stroke-width="2" stroke-linejoin="round"/>
<path d="M17.6667 23.5L21 20.1666" stroke="black" stroke-width="2" stroke-linejoin="round"/>
<path d="M5.16666 23.5L8.5 20.1666" stroke="black" stroke-width="2" stroke-linejoin="round"/>
<path d="M9.33334 23.5L12.6667 20.1666" stroke="black" stroke-width="2" stroke-linejoin="round"/>
<path d="M2.66666 34.3333H27.6667" stroke="black" stroke-width="2" stroke-linejoin="round"/>
<path d="M15.1667 26V34.3333" stroke="black" stroke-width="2" stroke-linejoin="round"/>
<path d="M21.8333 31.8333L25.1667 28.5" stroke="black" stroke-width="2" stroke-linejoin="round"/>
<path d="M17.6667 31.8333L21 28.5" stroke="black" stroke-width="2" stroke-linejoin="round"/>
<path d="M5.16666 31.8333L8.5 28.5" stroke="black" stroke-width="2" stroke-linejoin="round"/>
<path d="M9.33334 31.8333L12.6667 28.5" stroke="black" stroke-width="2" stroke-linejoin="round"/>
<path d="M5.16666 15.1666L8.5 11.8333" stroke="black" stroke-width="2" stroke-linejoin="round"/>
<path d="M9.33334 15.1666L12.6667 11.8333" stroke="black" stroke-width="2" stroke-linejoin="round"/>
<path d="M47.6667 17.6666H27.6667V47.6666H47.6667V17.6666Z" stroke="black" stroke-width="2" stroke-linejoin="round"/>
<path d="M36 21H31V26H36V21Z" stroke="black" stroke-width="2" stroke-linejoin="round"/>
<path d="M44.3333 21H39.3333V26H44.3333V21Z" stroke="black" stroke-width="2" stroke-linejoin="round"/>
<path d="M36 29.3333H31V34.3333H36V29.3333Z" stroke="black" stroke-width="2" stroke-linejoin="round"/>
<path d="M44.3333 29.3333H39.3333V34.3333H44.3333V29.3333Z" stroke="black" stroke-width="2" stroke-linejoin="round"/>
<path d="M31 47.6667V38.5H44.3333V47.6667" stroke="black" stroke-width="2" stroke-linejoin="round"/>
<path d="M37.6667 38.5V47.6667" stroke="black" stroke-width="2" stroke-linejoin="round"/>
<path d="M46 9.33325H31V14.3333H46V9.33325Z" stroke="black" stroke-width="2" stroke-linejoin="round"/>
<path d="M32.6667 14.3334V17.6667" stroke="black" stroke-width="2" stroke-linejoin="round"/>
<path d="M44.3333 14.3334V17.6667" stroke="black" stroke-width="2" stroke-linejoin="round"/>
</g>
</svg>
