<svg width="35" height="35" viewBox="0 0 35 35" fill="none" xmlns="http://www.w3.org/2000/svg">
<g clip-path="url(#clip0_206_362)">
<path d="M17.5 0C14.0388 0 10.6554 1.02636 7.77753 2.94928C4.89967 4.87221 2.65665 7.60533 1.33212 10.803C0.00758242 14.0007 -0.338976 17.5194 0.336265 20.9141C1.01151 24.3087 2.67822 27.427 5.12564 29.8744C7.57306 32.3218 10.6913 33.9885 14.0859 34.6637C17.4806 35.339 20.9993 34.9924 24.197 33.6679C27.3947 32.3434 30.1278 30.1003 32.0507 27.2225C33.9737 24.3446 35 20.9612 35 17.5C34.9949 12.8603 33.1496 8.41202 29.8688 5.13123C26.588 1.85044 22.1397 0.0050664 17.5 0ZM17.5 33.3594C14.3633 33.3594 11.2971 32.4292 8.68901 30.6866C6.08095 28.9439 4.04821 26.467 2.84786 23.5691C1.6475 20.6712 1.33343 17.4824 1.94537 14.406C2.5573 11.3296 4.06776 8.5037 6.28574 6.28573C8.50371 4.06775 11.3296 2.5573 14.406 1.94536C17.4824 1.33342 20.6712 1.64749 23.5691 2.84785C26.4671 4.04821 28.9439 6.08094 30.6866 8.689C32.4292 11.2971 33.3594 14.3633 33.3594 17.5C33.3543 21.7046 31.6818 25.7356 28.7087 28.7087C25.7356 31.6818 21.7046 33.3543 17.5 33.3594Z" fill="#051E28"/>
<path d="M15.8922 9.81098C15.7367 9.66608 15.531 9.5872 15.3185 9.59095C15.106 9.5947 14.9032 9.68079 14.7529 9.83109C14.6026 9.98138 14.5165 10.1841 14.5128 10.3967C14.509 10.6092 14.5879 10.8149 14.7328 10.9704L21.2625 17.5L14.7328 24.0297C14.6522 24.1048 14.5876 24.1954 14.5428 24.296C14.4979 24.3966 14.4738 24.5053 14.4719 24.6154C14.4699 24.7256 14.4902 24.835 14.5314 24.9371C14.5727 25.0392 14.6341 25.132 14.712 25.2099C14.7899 25.2878 14.8827 25.3492 14.9848 25.3905C15.087 25.4318 15.1964 25.452 15.3065 25.4501C15.4167 25.4481 15.5253 25.424 15.6259 25.3792C15.7265 25.3343 15.8171 25.2697 15.8922 25.1891L23.0016 18.0797C23.1552 17.9259 23.2415 17.7174 23.2415 17.5C23.2415 17.2827 23.1552 17.0742 23.0016 16.9204L15.8922 9.81098Z" fill="#051E28"/>
</g>
<defs>
<clipPath id="clip0_206_362">
<rect width="35" height="35" fill="white"/>
</clipPath>
</defs>
</svg>
