<svg width="50" height="50" viewBox="0 0 50 50" fill="none" xmlns="http://www.w3.org/2000/svg">
<path d="M45.9677 30.6452H35.7734L38.2782 27.4806C40.6371 24.5024 41.9355 20.7694 41.9355 16.9355C41.9355 7.59677 34.3379 0 25 0C15.6621 0 8.06452 7.59677 8.06452 16.9355V16.9694C8.06452 20.7694 9.3629 24.5024 11.7218 27.4815L14.2266 30.6452H4.03226C1.80887 30.6452 0 32.454 0 34.6774V45.9677C0 48.1911 1.80887 50 4.03226 50H45.9677C48.1911 50 50 48.1911 50 45.9677V34.6774C50 32.454 48.1911 30.6452 45.9677 30.6452ZM48.3871 34.6774V37.0968H41.9355V32.2581H45.9677C47.3016 32.2581 48.3871 33.3435 48.3871 34.6774ZM43.5484 48.3871H40.3226V41.9355H26.8089C26.8508 41.8895 26.9008 41.8532 26.9395 41.8032L29.3887 38.7097H37.0968V32.2581H40.3226V38.7097H48.3871V41.9355H43.5484V48.3871ZM6.45161 32.2581H9.67742V38.7097H20.6105L23.0597 41.804C23.0984 41.8532 23.1484 41.8895 23.1903 41.9355H14.5161V48.3871H11.2903V41.9355H1.6129V38.7097H6.45161V32.2581ZM16.129 43.5484H21.7742V48.3871H16.129V43.5484ZM23.3871 42.1331C23.8331 42.5194 24.3968 42.7419 25 42.7419C25.6032 42.7419 26.1669 42.5194 26.6129 42.1331V48.3871H23.3871V42.1331ZM38.7097 48.3871H28.2258V43.5484H38.7097V48.3871ZM35.4839 32.2581V37.0968H30.6661L34.4968 32.2581H35.4839ZM9.67742 16.9694V16.9355C9.67742 8.48629 16.5508 1.6129 25 1.6129C33.4492 1.6129 40.3226 8.48629 40.3226 16.9694C40.3226 20.4081 39.1476 23.7855 37.0129 26.4798L25.6742 40.8024C25.3452 41.2185 24.6532 41.2177 24.3242 40.8024L12.9855 26.4798C10.8524 23.7847 9.67742 20.4073 9.67742 16.9694ZM19.3339 37.0968H11.2903V32.2581H15.5032L19.3339 37.0968ZM4.03226 32.2581H4.83871V37.0968H1.6129V34.6774C1.6129 33.3435 2.69839 32.2581 4.03226 32.2581ZM1.6129 45.9677V43.5484H9.67742V48.3871H4.03226C2.69839 48.3871 1.6129 47.3016 1.6129 45.9677ZM45.9677 48.3871H45.1613V43.5484H48.3871V45.9677C48.3871 47.3016 47.3016 48.3871 45.9677 48.3871Z" fill="white"/>
</svg>
