<svg width="50" height="50" viewBox="0 0 50 50" fill="none" xmlns="http://www.w3.org/2000/svg">
<path d="M27.3992 23.9015C27.8338 24.0951 28.2959 24.1935 28.7726 24.1935C29.675 24.1935 30.5242 23.8419 31.1637 23.2031L32.258 22.1088C32.7782 21.5886 33.0645 20.8975 33.0645 20.1612C33.0645 19.4249 32.7782 18.7338 32.258 18.2144L30.979 16.9354C29.9379 15.8959 28.1266 15.8959 27.0855 16.9354L26.5701 17.4507C26.3822 17.6386 26.1322 17.7419 25.8661 17.7419H25.7468C25.4806 17.7419 25.2306 17.6386 25.0427 17.4499L24.4863 16.8943C24.2976 16.7048 24.1935 16.4548 24.1935 16.1886C24.1935 15.8846 24.3298 15.6007 24.5677 15.4112L25.0306 15.0411C25.5234 14.6459 25.8064 14.0572 25.8064 13.4257C25.8064 12.8814 25.5863 12.3483 25.2008 11.9636L23.7209 10.4838C22.6798 9.44428 20.8685 9.44347 19.8274 10.4838L18.7338 11.5782C18.0943 12.2161 17.7419 13.0661 17.7419 13.9878C17.7419 14.4475 17.8338 14.8959 18.0153 15.3201C19.5218 18.8346 22.2758 21.6257 25.7693 23.1781L27.3992 23.9015ZM19.4984 14.6846C19.4032 14.4628 19.3548 14.2282 19.3548 13.9693C19.3548 13.4967 19.5395 13.0532 19.8734 12.7193L20.9677 11.6249C21.1838 11.4088 21.4693 11.2902 21.7742 11.2902C22.079 11.2902 22.3645 11.4088 22.5806 11.6241L24.0605 13.104C24.1443 13.1886 24.1935 13.3064 24.1935 13.4257C24.1935 13.5644 24.1314 13.6943 24.0226 13.7814L23.5605 14.1515C22.9371 14.6491 22.5806 15.3911 22.5806 16.1886C22.5806 16.8854 22.8516 17.5402 23.3443 18.0338L23.9008 18.5894C24.3943 19.083 25.05 19.3548 25.7468 19.3548H25.8661C26.5629 19.3548 27.2185 19.083 27.7105 18.5911L28.2258 18.0765C28.6572 17.6451 29.4072 17.6451 29.8387 18.0765L31.1177 19.3548C31.3338 19.5701 31.4516 19.8564 31.4516 20.1612C31.4516 20.4661 31.3338 20.7523 31.1177 20.9677L30.0242 22.062C29.5121 22.5733 28.7137 22.7217 28.0548 22.4273L26.425 21.7032C23.3032 20.3169 20.8435 17.8241 19.4984 14.6846Z" fill="white"/>
<path d="M37.0968 16.9354C37.0968 10.2652 31.6702 4.83862 25 4.83862C18.3298 4.83862 12.9032 10.2652 12.9032 16.9354C12.9032 23.6056 18.3298 29.0322 25 29.0322C31.6702 29.0322 37.0968 23.6056 37.0968 16.9354ZM14.5161 16.9354C14.5161 11.1548 19.2194 6.45153 25 6.45153C30.7806 6.45153 35.4839 11.1548 35.4839 16.9354C35.4839 22.716 30.7806 27.4193 25 27.4193C19.2194 27.4193 14.5161 22.716 14.5161 16.9354Z" fill="white"/>
<path d="M45.9677 30.6452H35.7734L38.2782 27.4806C40.6371 24.5024 41.9355 20.7694 41.9355 16.9355C41.9355 7.59677 34.3379 0 25 0C15.6621 0 8.06452 7.59677 8.06452 16.9355V16.9694C8.06452 20.7694 9.3629 24.5024 11.7218 27.4815L14.2266 30.6452H4.03226C1.80887 30.6452 0 32.454 0 34.6774V45.9677C0 48.1911 1.80887 50 4.03226 50H45.9677C48.1911 50 50 48.1911 50 45.9677V34.6774C50 32.454 48.1911 30.6452 45.9677 30.6452ZM48.3871 34.6774V37.0968H41.9355V32.2581H45.9677C47.3016 32.2581 48.3871 33.3435 48.3871 34.6774ZM43.5484 48.3871H40.3226V41.9355H26.8089C26.8508 41.8895 26.9008 41.8532 26.9395 41.8032L29.3887 38.7097H37.0968V32.2581H40.3226V38.7097H48.3871V41.9355H43.5484V48.3871ZM6.45161 32.2581H9.67742V38.7097H20.6105L23.0597 41.804C23.0984 41.8532 23.1484 41.8895 23.1903 41.9355H14.5161V48.3871H11.2903V41.9355H1.6129V38.7097H6.45161V32.2581ZM16.129 43.5484H21.7742V48.3871H16.129V43.5484ZM23.3871 42.1331C23.8331 42.5194 24.3968 42.7419 25 42.7419C25.6032 42.7419 26.1669 42.5194 26.6129 42.1331V48.3871H23.3871V42.1331ZM38.7097 48.3871H28.2258V43.5484H38.7097V48.3871ZM35.4839 32.2581V37.0968H30.6661L34.4968 32.2581H35.4839ZM9.67742 16.9694V16.9355C9.67742 8.48629 16.5508 1.6129 25 1.6129C33.4492 1.6129 40.3226 8.48629 40.3226 16.9694C40.3226 20.4081 39.1476 23.7855 37.0129 26.4798L25.6742 40.8024C25.3452 41.2185 24.6532 41.2177 24.3242 40.8024L12.9855 26.4798C10.8524 23.7847 9.67742 20.4073 9.67742 16.9694ZM19.3339 37.0968H11.2903V32.2581H15.5032L19.3339 37.0968ZM4.03226 32.2581H4.83871V37.0968H1.6129V34.6774C1.6129 33.3435 2.69839 32.2581 4.03226 32.2581ZM1.6129 45.9677V43.5484H9.67742V48.3871H4.03226C2.69839 48.3871 1.6129 47.3016 1.6129 45.9677ZM45.9677 48.3871H45.1613V43.5484H48.3871V45.9677C48.3871 47.3016 47.3016 48.3871 45.9677 48.3871Z" fill="white"/>
<path d="M48.3871 16.129H46.7742V17.7419H48.3871V16.129Z" fill="white"/>
<path d="M45.1613 16.129H43.5484V17.7419H45.1613V16.129Z" fill="white"/>
<path d="M6.45159 16.129H4.83868V17.7419H6.45159V16.129Z" fill="white"/>
<path d="M3.22579 16.129H1.61288V17.7419H3.22579V16.129Z" fill="white"/>
</svg>
