<svg width="40" height="40" viewBox="0 0 40 40" fill="none" xmlns="http://www.w3.org/2000/svg">
<g clip-path="url(#clip0_27_170)">
<path d="M11.0417 17.9917C13.4417 22.7083 17.3 26.5667 22.025 28.9667L25.6917 25.2917C26.15 24.8333 26.8083 24.7 27.3833 24.8833C29.25 25.5 31.2583 25.8333 33.3333 25.8333C34.2583 25.8333 35 26.575 35 27.5V33.3333C35 34.2583 34.2583 35 33.3333 35C17.6833 35 5 22.3167 5 6.66667C5 5.74167 5.75 5 6.66667 5H12.5C13.425 5 14.1667 5.74167 14.1667 6.66667C14.1667 8.74167 14.5 10.75 15.1167 12.6167C15.3 13.1917 15.1667 13.85 14.7083 14.3083L11.0417 17.9917Z" fill="#FF6C00"/>
</g>
<defs>
<clipPath id="clip0_27_170">
<rect width="40" height="40" fill="white"/>
</clipPath>
</defs>
</svg>
