<svg width="50" height="50" viewBox="0 0 50 50" fill="none" xmlns="http://www.w3.org/2000/svg">
<path d="M36.193 19.6191C36.193 18.9845 35.7925 18.4317 35.2023 18.1861C31.2394 16.5687 28.1408 13.5798 26.4544 9.731C26.2015 9.1373 25.6112 8.7688 24.9578 8.7688C24.3043 8.7688 23.7352 9.1373 23.4612 9.731C21.7959 13.5593 18.6973 16.5483 14.7554 18.1656C14.1652 18.4113 13.7647 18.964 13.7647 19.5986C13.7647 20.2333 14.1441 20.786 14.7344 21.0522C18.5286 22.6695 21.6905 25.7813 23.4401 29.6096C23.693 30.1828 24.2833 30.5513 24.9156 30.5513C25.548 30.5513 26.1382 30.1828 26.3912 29.5891C28.0354 25.8836 31.2605 22.7719 35.2023 21.0726C35.8136 20.8065 36.193 20.2333 36.193 19.6191ZM24.9156 28.0128C23.0396 24.3687 19.9831 21.3797 16.3575 19.6191C20.1096 17.8585 23.1239 14.9514 24.9367 11.3074C26.7706 14.9719 29.7849 17.8994 33.5792 19.6396C29.8271 21.4821 26.7284 24.4711 24.9156 28.0128Z" fill="black"/>
<path d="M35.0548 35.8126C35.2445 35.8741 35.4974 35.956 35.8136 35.9355C36.3195 35.915 36.7833 35.7103 37.1416 35.3623C37.521 34.9938 37.7318 34.5024 37.7108 33.9906C37.6686 30.756 39.7765 27.9308 42.9384 26.9686C43.1492 26.9072 43.3811 26.8048 43.5497 26.6615C43.9713 26.3545 44.2453 25.9041 44.3086 25.4332C44.3929 24.9214 44.2664 24.4096 43.9502 23.9797C41.9688 21.3797 41.9477 17.8994 43.9291 15.3404L44.1821 15.0537L44.2875 14.7467C44.4561 14.2553 44.3929 13.723 44.161 13.2931C43.9081 12.8223 43.4865 12.4742 43.0016 12.3309C39.8398 11.3483 37.7529 8.54355 37.774 5.3294C37.774 5.08373 37.7318 4.85854 37.6686 4.65381C37.5 4.18295 37.1416 3.79398 36.6568 3.54831C36.172 3.32312 35.6661 3.30264 35.1812 3.46642C34.4013 3.73256 33.6003 3.8554 32.7782 3.8554C30.3541 3.8554 28.0775 2.70895 26.6863 0.805023C26.5387 0.620772 26.3701 0.456994 26.2226 0.354632C25.3372 -0.259536 24.0936 -0.0548133 23.4612 0.805023C22.0699 2.72942 19.7934 3.8554 17.3693 3.8554C16.5472 3.8554 15.7462 3.73256 14.9873 3.46642C14.3128 3.24123 13.4485 3.405 12.9426 3.93728C12.5632 4.30579 12.3524 4.79712 12.3735 5.30893C12.4156 8.54355 10.3077 11.3483 7.16691 12.3105C6.93504 12.3719 6.74533 12.4742 6.53453 12.6175C5.67028 13.2522 5.48057 14.46 6.13403 15.3199C8.11548 17.9199 8.11548 21.4002 6.13403 24.0001C6.00755 24.1639 5.90216 24.3686 5.83892 24.5529C5.69136 25.0442 5.73352 25.5356 5.98647 26.0269C6.23942 26.4773 6.66101 26.8253 7.14583 26.9686C10.3077 27.9513 12.3946 30.7765 12.3524 33.9497C12.3313 34.1953 12.3735 34.4205 12.4578 34.6457C12.6264 35.1166 12.9848 35.5056 13.4696 35.7512C13.9544 35.9764 14.4603 35.9969 14.9452 35.8331C15.7462 35.567 16.5683 35.4441 17.3904 35.4441C19.8355 35.4441 22.0278 36.5701 23.4612 38.515C23.5877 38.6788 23.7563 38.8425 23.9249 38.9654C24.2622 39.2111 24.6627 39.3339 25.0632 39.3339C25.1686 39.3339 25.2951 39.3339 25.4005 39.3134C25.9274 39.2315 26.3912 38.9449 26.6863 38.5355C28.4991 35.8741 31.8929 34.789 35.0548 35.8126ZM25 37.3685C23.2293 34.9323 20.3414 33.4788 17.285 33.4788C16.2521 33.4788 15.2192 33.6426 14.2495 34.0111C14.3128 29.9371 11.6357 26.3544 7.65173 25.1671C10.1602 21.871 10.1602 17.449 7.63065 14.2144C11.6357 13.0065 14.3128 9.4648 14.2917 5.37034C15.2403 5.67743 16.2521 5.84121 17.2639 5.84121C20.3414 5.84121 23.2293 4.38767 24.9367 1.95147C26.7074 4.38767 29.6163 5.84121 32.6939 5.84121C33.7268 5.84121 34.7597 5.67743 35.6871 5.3294C35.645 9.36244 38.2799 12.9041 42.2428 14.1734C39.7765 17.449 39.7765 21.8096 42.2428 25.1056C38.2588 26.3544 35.6028 29.9166 35.6871 33.9497H35.6661C31.7032 32.6394 27.3608 34.0111 25 37.3685Z" fill="black"/>
<path d="M18.4233 38.4126C17.9595 38.126 17.3271 38.2488 17.032 38.6992L12.0995 46.0283L9.38027 40.6236L3.73103 40.6031L8.89545 32.926C9.21164 32.4756 9.06408 31.8615 8.60034 31.5749C8.13659 31.2678 7.50422 31.4111 7.20911 31.8615L0 42.5685L8.13659 42.5889L11.8676 49.9999L18.7395 39.7638C19.0346 39.3134 18.887 38.6992 18.4233 38.4126Z" fill="black"/>
<path d="M42.7487 31.8411C42.4325 31.3907 41.8212 31.2678 41.3575 31.5544C40.8937 31.8615 40.7673 32.4552 41.0624 32.9056L46.2479 40.6032L40.5986 40.6237L37.8794 46.0284L32.9258 38.6788C32.6096 38.2284 31.9983 38.1056 31.5346 38.3922C31.0708 38.6993 30.9443 39.293 31.2394 39.7434L38.1324 50L41.8634 42.589L50 42.5685L42.7487 31.8411Z" fill="black"/>
</svg>
