<svg width="81" height="82" viewBox="0 0 81 82" fill="none" xmlns="http://www.w3.org/2000/svg">
<path d="M80 75.667H1V81.0003H80V75.667Z" stroke="#051E28" stroke-width="2" stroke-linejoin="round"/>
<path d="M3.63324 75.6664V1H43.1332V75.6664" stroke="#051E28" stroke-width="2" stroke-linejoin="round"/>
<path d="M3.63324 14.3335H43.1332" stroke="#051E28" stroke-width="2" stroke-linejoin="round"/>
<path d="M23.3833 1V14.3333" stroke="#051E28" stroke-width="2" stroke-linejoin="round"/>
<path d="M3.63324 27.6663H43.1332" stroke="#051E28" stroke-width="2" stroke-linejoin="round"/>
<path d="M23.3833 14.3335V27.6668" stroke="#051E28" stroke-width="2" stroke-linejoin="round"/>
<path d="M3.63324 40.9998H43.1332" stroke="#051E28" stroke-width="2" stroke-linejoin="round"/>
<path d="M23.3833 27.6663V40.9995" stroke="#051E28" stroke-width="2" stroke-linejoin="round"/>
<path d="M16.7999 75.6663V68.9997C16.7999 67.2315 17.4935 65.5359 18.7281 64.2856C19.9628 63.0354 21.6373 62.333 23.3833 62.333C24.2478 62.333 25.1039 62.5054 25.9026 62.8405C26.7013 63.1755 27.4271 63.6666 28.0384 64.2856C28.6497 64.9047 29.1346 65.6396 29.4655 66.4484C29.7963 67.2573 29.9666 68.1242 29.9666 68.9997V75.6663" stroke="#051E28" stroke-width="2" stroke-linejoin="round"/>
<path d="M7.58325 10.334L12.8499 5.00073" stroke="#051E28" stroke-width="2" stroke-linejoin="round"/>
<path d="M14.1666 10.334L19.4333 5.00073" stroke="#051E28" stroke-width="2" stroke-linejoin="round"/>
<path d="M33.9166 10.334L39.1833 5.00073" stroke="#051E28" stroke-width="2" stroke-linejoin="round"/>
<path d="M33.9166 23.6663L39.1833 18.333" stroke="#051E28" stroke-width="2" stroke-linejoin="round"/>
<path d="M33.9166 37.0003L39.1833 31.667" stroke="#051E28" stroke-width="2" stroke-linejoin="round"/>
<path d="M27.3334 10.334L32.6 5.00073" stroke="#051E28" stroke-width="2" stroke-linejoin="round"/>
<path d="M27.3334 23.6663L32.6 18.333" stroke="#051E28" stroke-width="2" stroke-linejoin="round"/>
<path d="M27.3334 37.0003L32.6 31.667" stroke="#051E28" stroke-width="2" stroke-linejoin="round"/>
<path d="M7.58325 37.0003L12.8499 31.667" stroke="#051E28" stroke-width="2" stroke-linejoin="round"/>
<path d="M14.1666 37.0003L19.4333 31.667" stroke="#051E28" stroke-width="2" stroke-linejoin="round"/>
<path d="M3.63324 54.3333H43.1332" stroke="#051E28" stroke-width="2" stroke-linejoin="round"/>
<path d="M23.3833 40.9998V54.333" stroke="#051E28" stroke-width="2" stroke-linejoin="round"/>
<path d="M33.9166 50.3338L39.1833 45.0005" stroke="#051E28" stroke-width="2" stroke-linejoin="round"/>
<path d="M27.3334 50.3338L32.6 45.0005" stroke="#051E28" stroke-width="2" stroke-linejoin="round"/>
<path d="M7.58325 50.3338L12.8499 45.0005" stroke="#051E28" stroke-width="2" stroke-linejoin="round"/>
<path d="M7.58325 23.6663L12.8499 18.333" stroke="#051E28" stroke-width="2" stroke-linejoin="round"/>
<path d="M14.1666 23.6663L19.4333 18.333" stroke="#051E28" stroke-width="2" stroke-linejoin="round"/>
<path d="M74.7333 27.6663H43.1333V75.6661H74.7333V27.6663Z" stroke="#051E28" stroke-width="2" stroke-linejoin="round"/>
<path d="M56.3 33H48.4V41H56.3V33Z" stroke="#051E28" stroke-width="2" stroke-linejoin="round"/>
<path d="M69.4667 33H61.5667V41H69.4667V33Z" stroke="#051E28" stroke-width="2" stroke-linejoin="round"/>
<path d="M56.3 46.333H48.4V54.333H56.3V46.333Z" stroke="#051E28" stroke-width="2" stroke-linejoin="round"/>
<path d="M69.4667 46.333H61.5667V54.333H69.4667V46.333Z" stroke="#051E28" stroke-width="2" stroke-linejoin="round"/>
<path d="M48.4 75.6664V60.9998H69.4667V75.6664" stroke="#051E28" stroke-width="2" stroke-linejoin="round"/>
<path d="M58.9333 60.9998V75.6664" stroke="#051E28" stroke-width="2" stroke-linejoin="round"/>
<path d="M72.1 14.3335H48.4V22.3335H72.1V14.3335Z" stroke="#051E28" stroke-width="2" stroke-linejoin="round"/>
<path d="M51.0334 22.3333V27.6666" stroke="#051E28" stroke-width="2" stroke-linejoin="round"/>
<path d="M69.4666 22.3333V27.6666" stroke="#051E28" stroke-width="2" stroke-linejoin="round"/>
</svg>
