<svg width="40" height="40" viewBox="0 0 40 40" fill="none" xmlns="http://www.w3.org/2000/svg">
<path d="M5.23438 11.6172C6.09375 12.0703 18.0312 18.5781 18.4766 18.8125C18.9219 19.0469 19.375 19.1562 20.0781 19.1562C20.7812 19.1562 21.2344 19.0469 21.6797 18.8125C22.125 18.5781 34.0625 12.0703 34.9219 11.6172C35.2422 11.4531 35.7813 11.1562 35.8984 10.8203C36.1016 10.2266 35.8828 10 35.0156 10H20.0781H5.14063C4.27344 10 4.05469 10.2344 4.25781 10.8203C4.375 11.1641 4.91406 11.4531 5.23438 11.6172Z" fill="#051E28"/>
<path d="M35.6016 11.9688C34.9609 12.2969 29.2109 16.3906 25.4062 18.8516L31.8281 26.0781C31.9844 26.2344 32.0547 26.4219 31.9687 26.5156C31.875 26.6016 31.6719 26.5547 31.5078 26.4063L23.8047 19.9063C22.6406 20.6563 21.8203 21.1719 21.6797 21.25C21.0781 21.5547 20.6562 21.5938 20.0781 21.5938C19.5 21.5938 19.0781 21.5547 18.4766 21.25C18.3281 21.1719 17.5156 20.6563 16.3516 19.9063L8.64844 26.4063C8.49219 26.5625 8.28125 26.6094 8.1875 26.5156C8.09375 26.4297 8.16406 26.2344 8.32031 26.0781L14.7344 18.8516C10.9297 16.3906 5.11719 12.2969 4.47656 11.9688C3.78906 11.6172 3.75 12.0313 3.75 12.3516C3.75 12.6719 3.75 28.3672 3.75 28.3672C3.75 29.0938 4.82031 30 5.58594 30H20.0781H34.5703C35.3359 30 36.25 29.0859 36.25 28.3672C36.25 28.3672 36.25 12.6641 36.25 12.3516C36.25 12.0234 36.2969 11.6172 35.6016 11.9688Z" fill="#051E28"/>
</svg>
