<svg width="120" height="120" viewBox="0 0 120 120" fill="none" xmlns="http://www.w3.org/2000/svg">
<g clip-path="url(#clip0_267_102)">
<path d="M60 6C49.3198 6 38.8795 9.16704 29.9992 15.1006C21.119 21.0342 14.1976 29.4679 10.1105 39.3351C6.02337 49.2023 4.95399 60.0599 7.0376 70.5349C9.1212 81.0098 14.2642 90.6317 21.8162 98.1838C29.3683 105.736 38.9901 110.879 49.4651 112.962C59.9401 115.046 70.7977 113.977 80.6649 109.889C90.5321 105.802 98.9658 98.881 104.899 90.0008C110.833 81.1205 114 70.6802 114 60C114 45.6784 108.31 31.9434 98.1836 21.8164C88.0566 11.6895 74.3216 6.00018 60 6ZM60 111.6C48.062 111.6 36.4933 107.461 27.265 99.8874C18.0368 92.3141 11.72 81.7753 9.39095 70.0666C7.06191 58.358 8.86473 46.2041 14.4922 35.6757C20.1197 25.1473 29.2237 16.8958 40.253 12.3273C51.2823 7.75881 63.5544 7.15589 74.9784 10.6213C86.4023 14.0867 96.2713 21.406 102.904 31.3321C109.536 41.2581 112.522 53.1769 111.352 65.0574C110.181 76.9379 104.928 88.0452 96.4866 96.4866C91.7006 101.285 86.0133 105.091 79.7517 107.685C73.4901 110.279 66.7775 111.609 60 111.6Z" fill="#7A7B7A"/>
<path d="M83.7401 57.3165L49.161 35.2858C48.6699 34.97 48.0986 34.8015 47.5147 34.8003C46.7011 34.8033 45.9212 35.1254 45.3426 35.6974C45.0419 35.9942 44.8037 36.3481 44.6418 36.7383C44.4799 37.1285 44.3977 37.5471 44.4 37.9696V82.0309C44.3977 82.4533 44.4799 82.8719 44.6418 83.2621C44.8037 83.6523 45.0419 84.0062 45.3426 84.303C45.9211 84.875 46.7011 85.1971 47.5147 85.2001C48.0986 85.1988 48.6699 85.0304 49.161 84.7146L83.7401 62.684C84.1882 62.3941 84.5565 61.9966 84.8115 61.5278C85.0665 61.059 85.2001 60.5339 85.2001 60.0002C85.2001 59.4666 85.0665 58.9414 84.8115 58.4726C84.5565 58.0039 84.1882 57.6064 83.7401 57.3165ZM82.4504 60.6599L47.8714 82.6905C47.7658 82.7612 47.6418 82.7993 47.5147 82.8001C47.3308 82.7968 47.1553 82.7221 47.0254 82.5918C46.9515 82.5187 46.8933 82.4312 46.8546 82.3347C46.8158 82.2382 46.7972 82.1348 46.8 82.0309V37.9696C46.7972 37.8656 46.8158 37.7622 46.8546 37.6657C46.8933 37.5692 46.9515 37.4817 47.0254 37.4086C47.1553 37.2783 47.3307 37.2036 47.5147 37.2003C47.6417 37.2012 47.7658 37.2393 47.8714 37.3099L82.4505 59.3406C82.5582 59.4137 82.6464 59.512 82.7073 59.627C82.7683 59.742 82.8001 59.8701 82.8001 60.0003C82.8001 60.1304 82.7683 60.2586 82.7073 60.3736C82.6463 60.4886 82.5581 60.5869 82.4504 60.6599Z" fill="#7A7B7A"/>
<path d="M65 12C54.3198 12 43.8795 15.167 34.9992 21.1006C26.119 27.0342 19.1976 35.4679 15.1105 45.3351C11.0234 55.2023 9.95399 66.0599 12.0376 76.5349C14.1212 87.0098 19.2642 96.6317 26.8162 104.184C34.3683 111.736 43.9901 116.879 54.4651 118.962C64.9401 121.046 75.7977 119.977 85.6649 115.889C95.5321 111.802 103.966 104.881 109.899 96.0008C115.833 87.1205 119 76.6802 119 66C119 51.6784 113.31 37.9434 103.184 27.8164C93.0566 17.6895 79.3216 12.0002 65 12ZM65 117.6C53.062 117.6 41.4933 113.461 32.265 105.887C23.0368 98.3141 16.72 87.7753 14.391 76.0666C12.0619 64.358 13.8647 52.2041 19.4922 41.6757C25.1197 31.1473 34.2237 22.8958 45.253 18.3273C56.2823 13.7588 68.5544 13.1559 79.9784 16.6213C91.4023 20.0867 101.271 27.406 107.904 37.3321C114.536 47.2581 117.522 59.1769 116.352 71.0574C115.181 82.9379 109.928 94.0452 101.487 102.487C96.7006 107.285 91.0133 111.091 84.7517 113.685C78.4901 116.279 71.7775 117.609 65 117.6Z" fill="white"/>
<path d="M88.7401 63.3165L54.161 41.2858C53.6699 40.97 53.0986 40.8015 52.5147 40.8003C51.7011 40.8033 50.9212 41.1254 50.3426 41.6974C50.0419 41.9942 49.8037 42.3481 49.6418 42.7383C49.4799 43.1285 49.3977 43.5471 49.4 43.9696V88.0309C49.3977 88.4533 49.4799 88.8719 49.6418 89.2621C49.8037 89.6523 50.0419 90.0062 50.3426 90.303C50.9211 90.875 51.7011 91.1971 52.5147 91.2001C53.0986 91.1988 53.6699 91.0304 54.161 90.7146L88.7401 68.684C89.1882 68.394 89.5565 67.9966 89.8115 67.5278C90.0665 67.059 90.2001 66.5339 90.2001 66.0002C90.2001 65.4666 90.0665 64.9414 89.8115 64.4726C89.5565 64.0039 89.1882 63.6064 88.7401 63.3165ZM87.4504 66.6599L52.8714 88.6905C52.7658 88.7612 52.6418 88.7993 52.5147 88.8001C52.3308 88.7968 52.1553 88.7221 52.0254 88.5918C51.9515 88.5187 51.8933 88.4312 51.8546 88.3347C51.8158 88.2382 51.7972 88.1348 51.8 88.0309V43.9696C51.7972 43.8656 51.8158 43.7622 51.8546 43.6657C51.8933 43.5692 51.9515 43.4817 52.0254 43.4086C52.1553 43.2783 52.3307 43.2036 52.5147 43.2003C52.6417 43.2012 52.7658 43.2393 52.8714 43.3099L87.4505 65.3406C87.5582 65.4137 87.6464 65.512 87.7073 65.627C87.7683 65.742 87.8001 65.8701 87.8001 66.0003C87.8001 66.1304 87.7683 66.2586 87.7073 66.3736C87.6463 66.4886 87.5581 66.5869 87.4504 66.6599Z" fill="white"/>
</g>
<defs>
<clipPath id="clip0_267_102">
<rect width="120" height="120" fill="white"/>
</clipPath>
</defs>
</svg>
