<svg width="20" height="18" viewBox="0 0 20 18" fill="none" xmlns="http://www.w3.org/2000/svg">
<path d="M9.90489 0.292705C9.93483 0.200574 10.0652 0.200574 10.0951 0.292705L12.2227 6.84073C12.2361 6.88193 12.2745 6.90983 12.3178 6.90983H19.2028C19.2997 6.90983 19.3399 7.03379 19.2616 7.09073L13.6915 11.1376C13.6564 11.1631 13.6418 11.2082 13.6552 11.2494L15.7827 17.7975C15.8127 17.8896 15.7072 17.9662 15.6289 17.9093L10.0588 13.8624C10.0237 13.8369 9.97627 13.8369 9.94122 13.8624L4.37114 17.9093C4.29277 17.9662 4.18732 17.8896 4.21725 17.7975L6.34484 11.2494C6.35822 11.2082 6.34356 11.1631 6.30851 11.1376L0.738425 7.09073C0.660054 7.03379 0.700331 6.90983 0.797204 6.90983H7.68221C7.72553 6.90983 7.76392 6.88193 7.77731 6.84073L9.90489 0.292705Z" fill="#483DF6"/>
</svg>
